# xmcd
#
# Track frame offsets:
#  150
#  17290
#  34296
#  51325
#  66616
#  82567
#  98487
#  114054
#  129705
#  144344
#
# Disc length: 2131 seconds
#
# Revision: 0
# Processed by: cddbd v1.5.2PL0 Copyright (c) Steve Scherf et al.
# Submitted via: AltoMP3_Maker 3.0
#
DISCID=7608510a
DTITLE=Ëáúêü Ôñáãïýäé 1954 - Ôï ÂÞìá
DYEAR=2008
DGENRE=Λαϊκή
TTITLE0=Ôï âïõíü
TTITLE1=Ôï óõìöÝñïí
TTITLE2=Ãëõêï÷áñÜæåé ï áõãåñéíüò
TTITLE3=Óôá öôù÷ïôáâåñíÜêéá
TTITLE4=Ôçò âñï÷ïýëáò ôï íåñÜêé
TTITLE5=Ôï Üäéêï
TTITLE6=Ïñöáíüò
TTITLE7=Ï ÷Üñïò
TTITLE8=Äåí ìå óõãêéíåßò
TTITLE9=Ìåóïãåßôéóóá
EXTD=
EXTT0=
EXTT1=
EXTT2=
EXTT3=
EXTT4=
EXTT5=
EXTT6=
EXTT7=
EXTT8=
EXTT9=
PLAYORDER=
